<?xml version="1.0" encoding="iso-8859-1"?>
<!-- Generator: Adobe Illustrator 19.0.0, SVG Export Plug-In . SVG Version: 6.00 Build 0)  -->
<svg version="1.1" id="Capa_1" xmlns="http://www.w3.org/2000/svg" xmlns:xlink="http://www.w3.org/1999/xlink" x="0px" y="0px"
	 viewBox="0 0 512 512" style="enable-background:new 0 0 512 512;" xml:space="preserve">
<path style="fill:#82D2FF;" d="M482.751,308.405l-55.735,29.011l-65.09-37.58L432.12,256l-70.194-43.836l65.09-37.58l55.735,29.011
	l13.851-26.611l-38.78-20.185l27.38-15.808l-15-25.98l-27.38,15.808l1.91-43.677l-29.972-1.311l-2.745,62.774l-65.09,37.58
	l-2.866-82.708L271,142.347v-75.16l52.991-33.764l-16.12-25.301L271,31.615V0h-30v31.615L204.129,8.123l-16.12,25.301L241,67.188
	v75.16l-73.06-38.872l-2.866,82.708l-65.09-37.58L97.239,85.83l-29.972,1.311l1.91,43.677l-27.38-15.808l-15,25.98l27.38,15.808
	l-38.78,20.185l13.851,26.611l55.735-29.011l65.09,37.58L79.88,256l70.194,43.836l-65.09,37.58l-55.735-29.011l-13.851,26.611
	l38.78,20.185l-27.38,15.808l15,25.98l27.38-15.808l-1.91,43.677l29.972,1.311l2.745-62.774l65.09-37.58l2.866,82.708L241,369.653
	v75.16l-52.991,33.764l16.12,25.301L241,480.385V512h30v-31.615l36.871,23.492l16.12-25.301L271,444.812v-75.16l73.06,38.872
	l2.866-82.708l65.09,37.58l2.745,62.774l29.972-1.311l-1.91-43.677l27.38,15.808l15-25.98l-27.38-15.808l38.78-20.185
	L482.751,308.405z M375.483,256l-42.986,26.845L286,256l46.497-26.845L375.483,256z M315.742,152.524l1.755,50.65L271,230.02v-53.69
	L315.742,152.524z M196.258,152.524L241,176.33v53.69l-46.497-26.845L196.258,152.524z M136.517,256l42.986-26.845L226,256
	l-46.497,26.845L136.517,256z M196.258,359.476l-1.755-50.65L241,281.98v53.69L196.258,359.476z M315.742,359.476L271,335.67v-53.69
	l46.497,26.845L315.742,359.476z"/>
<path style="fill:#08B7FC;" d="M482.751,308.405l-55.735,29.011l-65.09-37.58L432.12,256l-70.194-43.836l65.09-37.58l55.735,29.011
	l13.851-26.611l-38.78-20.185l27.38-15.808l-15-25.98l-27.38,15.808l1.91-43.677l-29.972-1.311l-2.745,62.774l-65.09,37.58
	l-2.866-82.708L271,142.347v-75.16l52.991-33.764l-16.12-25.301L271,31.615V0h-15v512h15v-31.615l36.871,23.492l16.12-25.301
	L271,444.812v-75.16l73.06,38.872l2.866-82.708l65.09,37.58l2.745,62.774l29.972-1.311l-1.91-43.677l27.38,15.808l15-25.98
	l-27.38-15.808l38.78-20.185L482.751,308.405z M271,176.33l44.742-23.805l1.755,50.65L271,230.02V176.33z M315.742,359.476
	L271,335.67v-53.69l46.497,26.845L315.742,359.476z M332.497,282.845L286,256l46.497-26.845L375.483,256L332.497,282.845z"/>
<g>
</g>
<g>
</g>
<g>
</g>
<g>
</g>
<g>
</g>
<g>
</g>
<g>
</g>
<g>
</g>
<g>
</g>
<g>
</g>
<g>
</g>
<g>
</g>
<g>
</g>
<g>
</g>
<g>
</g>
</svg>
